<svg width="14" height="14" viewBox="0 0 14 14" fill="none" xmlns="http://www.w3.org/2000/svg">
<g clip-path="url(#clip0_0_128)">
<path fill-rule="evenodd" clip-rule="evenodd" d="M7.77762 10.1807C7.77762 10.6101 7.42947 10.9583 7.00001 10.9583C6.57054 10.9583 6.22239 10.6101 6.22239 10.1807C6.22239 9.7512 6.57054 9.40305 7.00001 9.40305C7.42947 9.40305 7.77762 9.7512 7.77762 10.1807Z" fill="#4D4D4D"/>
<path fill-rule="evenodd" clip-rule="evenodd" d="M6.12703 3.40753C6.54384 3.23488 7.00249 3.18971 7.44498 3.27773C7.88747 3.36574 8.29392 3.583 8.61294 3.90201C8.93196 4.22103 9.14921 4.62748 9.23723 5.06997C9.32524 5.51246 9.28007 5.97111 9.10742 6.38793C8.93477 6.80474 8.6424 7.161 8.26727 7.41165C8.02318 7.57475 7.75117 7.68837 7.46663 7.74784V7.84782C7.46663 8.10556 7.2577 8.31449 6.99997 8.31449C6.74223 8.31449 6.5333 8.10556 6.5333 7.84782V7.32942C6.5333 7.20565 6.58246 7.08695 6.66998 6.99943C6.7575 6.91192 6.8762 6.86275 6.99997 6.86275C7.26653 6.86275 7.5271 6.7837 7.74874 6.63561C7.97038 6.48752 8.14312 6.27703 8.24513 6.03075C8.34714 5.78448 8.37383 5.51349 8.32183 5.25205C8.26982 4.99061 8.14146 4.75047 7.95298 4.56198C7.76449 4.37349 7.52434 4.24513 7.2629 4.19313C7.00146 4.14112 6.73047 4.16781 6.4842 4.26982C6.23793 4.37183 6.02744 4.54458 5.87934 4.76621C5.73125 4.98785 5.65221 5.24843 5.65221 5.51499C5.65221 5.77272 5.44327 5.98166 5.18554 5.98166C4.92781 5.98166 4.71887 5.77272 4.71887 5.51499C4.71887 5.06383 4.85266 4.62281 5.10331 4.24768C5.35396 3.87256 5.71021 3.58019 6.12703 3.40753Z" fill="#4D4D4D"/>
<path fill-rule="evenodd" clip-rule="evenodd" d="M6.99998 1.63336C4.03605 1.63336 1.63332 4.0361 1.63332 7.00002C1.63332 9.96395 4.03605 12.3667 6.99998 12.3667C9.96391 12.3667 12.3666 9.96395 12.3666 7.00002C12.3666 4.0361 9.96391 1.63336 6.99998 1.63336ZM0.699982 7.00002C0.699982 3.52063 3.52059 0.700024 6.99998 0.700024C10.4794 0.700024 13.3 3.52063 13.3 7.00002C13.3 10.4794 10.4794 13.3 6.99998 13.3C3.52059 13.3 0.699982 10.4794 0.699982 7.00002Z" fill="#4D4D4D"/>
</g>
<defs>
<clipPath id="clip0_0_128">
<rect width="14" height="14" fill="white"/>
</clipPath>
</defs>
</svg>
