<svg width="20" height="20" viewBox="0 0 20 20" fill="none" xmlns="http://www.w3.org/2000/svg">
<g opacity="0.8">
<path fill-rule="evenodd" clip-rule="evenodd" d="M14.297 1.98735C14.1117 1.19624 13.4056 0.624989 12.5803 0.624989H7.41973L7.28881 0.629901L7.15273 0.645412L7.01891 0.671409C6.2278 0.856741 5.65654 1.56286 5.65654 2.38818V2.60321H4.19438L4.04435 2.60716C2.703 2.67793 1.61411 3.69144 1.61411 4.96847V17.0098L1.61854 17.1505C1.69806 18.4071 2.83548 19.375 4.19438 19.375H15.8056L15.9557 19.3711C17.297 19.3003 18.3859 18.2868 18.3859 17.0098V4.96847L18.3815 4.82769C18.3019 3.57112 17.1645 2.60321 15.8056 2.60321H14.3435V2.38818L14.3386 2.25725L14.323 2.12118L14.297 1.98735ZM14.3435 3.89335V4.10836C14.3435 4.93367 13.7722 5.6398 12.9811 5.82513L12.8473 5.85113L12.7112 5.86664L12.5803 5.87155H7.41973C6.59441 5.87155 5.88829 5.30029 5.70296 4.50918L5.67696 4.37536L5.66145 4.23928L5.65654 4.10836V3.89335H4.19438C3.50888 3.89335 2.97091 4.33571 2.90999 4.86774L2.90424 4.96847V17.0098C2.90424 17.5516 3.40189 18.0259 4.06766 18.0798L4.19438 18.0849H15.8056C16.4911 18.0849 17.0291 17.6425 17.09 17.1105L17.0958 17.0098V4.96847C17.0958 4.4266 16.5981 3.95237 15.9323 3.89845L15.8056 3.89335H14.3435ZM7.67749 1.61409H12.3225C12.7695 1.61409 13.159 1.90083 13.3003 2.31862L13.3304 2.42571L13.3486 2.53611L13.3546 2.64624L13.3541 3.86706L13.3451 3.9893L13.3238 4.10084L13.2869 4.21897C13.1781 4.50362 12.9482 4.72442 12.6587 4.82509L12.5475 4.8571L12.4312 4.87651L12.3225 4.88244L7.66076 4.8819L7.53852 4.8729L7.42698 4.85164L7.30885 4.81467C7.0242 4.70591 6.8034 4.47603 6.70273 4.18655L6.67072 4.07532L6.65131 3.95904L6.64538 3.8503L6.64592 2.62947L6.65492 2.50724L6.67618 2.3957L6.71315 2.27756C6.82191 1.99292 7.05179 1.77212 7.34127 1.67145L7.4525 1.63944L7.56878 1.62003L7.67749 1.61409Z" fill="white"/>
<path d="M5.46293 10.5959C5.93816 10.5959 6.3234 10.2107 6.3234 9.73546C6.3234 9.26023 5.93816 8.87499 5.46293 8.87499C4.98771 8.87499 4.60246 9.26023 4.60246 9.73546C4.60246 10.2107 4.98771 10.5959 5.46293 10.5959Z" fill="white"/>
<path d="M8.04437 8.94849C7.61235 8.94849 7.26213 9.29871 7.26213 9.73073C7.26213 10.1628 7.61235 10.513 8.04437 10.513H14.6152C15.0473 10.513 15.3975 10.1628 15.3975 9.73073C15.3975 9.29871 15.0473 8.94849 14.6152 8.94849H8.04437Z" fill="white"/>
<path d="M7.26216 14.1522C7.26216 13.7202 7.61239 13.3699 8.04441 13.3699H14.6153C15.0473 13.3699 15.3975 13.7202 15.3975 14.1522C15.3975 14.5842 15.0473 14.9344 14.6153 14.9344H8.04441C7.61239 14.9344 7.26216 14.5842 7.26216 14.1522Z" fill="white"/>
<path d="M5.46297 15.0173C5.93819 15.0173 6.32344 14.6321 6.32344 14.1569C6.32344 13.6817 5.93819 13.2964 5.46297 13.2964C4.98774 13.2964 4.6025 13.6817 4.6025 14.1569C4.6025 14.6321 4.98774 15.0173 5.46297 15.0173Z" fill="white"/>
</g>
</svg>
